<svg xmlns="http://www.w3.org/2000/svg" viewBox="0 0 612 455" fill="#F5D200" aria-hidden="true"><path d="M501 1Q529 1 556.5 1.0Q584 1 612 1Q612 58 612 114Q612 171 612.0 228.0Q612 285 612 341Q612 398 612 455Q556 455 500.0 455.0Q444 455 388 455Q388 435 388.0 414.5Q388 394 388 374Q424 374 460.0 374.0Q496 374 532 374Q532 301 532.0 228.5Q532 156 532 83Q531 83 529.5 83.0Q528 83 527 83Q496 83 466.0 83.0Q436 83 405 83Q403 83 401.0 83.5Q399 84 398 86Q381 102 364.5 118.5Q348 135 332 151Q331 152 329.0 152.5Q327 153 325 153Q316 154 306.5 154.0Q297 154 288 153Q286 153 284.0 152.5Q282 152 281 151Q265 134 248.5 118.0Q232 102 215 86Q214 85 212.0 84.0Q210 83 209 83Q177 83 145.5 83.0Q114 83 83 83Q82 83 81.5 83.0Q81 83 80 83Q80 155 80.0 227.5Q80 300 80 373Q116 373 152.0 373.0Q188 373 224 373Q224 394 224.0 414.0Q224 434 224 455Q168 455 112.0 455.0Q56 455 0 455Q0 398 0 341Q0 285 0.0 228.0Q0 171 0 114Q0 58 0 1Q1 1 2.5 1.0Q4 1 5 1Q63 1 122.0 1.0Q181 1 240 1Q242 1 244.0 1.5Q246 2 247 4Q261 17 274.5 30.5Q288 44 302 58Q303 59 304.0 60.0Q305 61 306 62Q307 61 308.0 60.5Q309 60 310 59Q323 46 335.5 33.5Q348 21 360 8Q364 4 368.5 2.0Q373 0 378 0Q409 1 439.5 1.0Q470 1 501 1Z"/></svg>