<svg version="1.1" id="Layer_1" xmlns="http://www.w3.org/2000/svg" xmlns:xlink="http://www.w3.org/1999/xlink" x="0px" y="0px"
	 width="100%" viewBox="0 0 1024 1025" enable-background="new 0 0 1024 1025" xml:space="preserve">
<path fill="#E4C542" fill-opacity="0" opacity="1.000000" stroke="none" 
	d="
M1025.000000,167.000000 
	C1025.000000,397.693512 1025.000000,628.387024 1024.607422,859.704590 
	C1023.810852,863.570496 1023.413086,866.813232 1023.001831,870.054260 
	C1020.973999,886.037415 1016.220642,901.266602 1009.536011,915.834106 
	C1002.212463,931.793579 993.878662,947.277161 981.434875,959.935547 
	C971.300598,970.244507 961.425842,981.112366 949.902039,989.665649 
	C938.487427,998.137939 925.366211,1004.442993 912.604309,1010.933289 
	C898.085510,1018.317078 882.308838,1021.875977 866.211975,1024.020508 
	C862.125977,1024.564941 858.069824,1025.334106 854.000000,1026.000000 
	C626.973145,1026.000000 399.946259,1026.000000 172.288910,1025.603027 
	C166.415283,1024.790527 161.048691,1024.948853 155.952118,1023.852234 
	C140.674744,1020.565063 125.636406,1016.690552 111.185814,1010.241211 
	C93.518608,1002.356262 77.320900,992.331848 63.216549,979.377197 
	C53.320717,970.287964 44.244965,960.060547 36.114155,949.346436 
	C19.584642,927.565186 8.928554,902.943848 3.992996,875.950806 
	C3.019984,870.629395 1.998910,865.316711 1.000003,860.000000 
	C1.000000,629.306458 1.000000,398.612946 1.392484,167.295425 
	C2.189019,163.429504 2.586931,160.186768 2.998155,156.945740 
	C5.026105,140.962677 9.779362,125.733459 16.464064,111.166039 
	C23.787582,95.206512 32.121288,79.722977 44.565071,67.064590 
	C54.699310,56.755577 64.574127,45.887733 76.097939,37.334393 
	C87.512581,28.862076 100.633781,22.556992 113.395721,16.066736 
	C127.914543,8.682993 143.691223,5.124119 159.788071,2.979375 
	C163.874084,2.434953 167.930161,1.665860 172.000000,1.000000 
	C399.026855,1.000000 626.053711,1.000000 853.711060,1.396999 
	C859.584656,2.209392 864.951233,2.051162 870.047791,3.147741 
	C885.325195,6.434825 900.363464,10.309544 914.814087,16.758816 
	C932.481323,24.643696 948.679016,34.668175 962.783386,47.622856 
	C972.679260,56.712044 981.755005,66.939438 989.885864,77.653557 
	C1006.415466,99.434761 1017.071716,124.056068 1022.007080,151.049210 
	C1022.979980,156.370667 1024.001099,161.683304 1025.000000,167.000000 
M707.500000,285.999969 
	C666.668030,285.999939 625.832520,286.276306 585.007080,285.759552 
	C577.137573,285.659882 571.913391,288.499786 566.868530,293.587616 
	C550.093506,310.505402 533.231750,327.337372 516.393311,344.192200 
	C515.361694,345.224854 514.243591,346.171082 512.957520,347.348022 
	C511.463165,345.930511 510.139648,344.713562 508.858246,343.453735 
	C490.327148,325.234894 471.851959,306.958496 453.188263,288.876648 
	C451.533386,287.273376 448.660339,286.121063 446.350647,286.116943 
	C367.854645,285.976196 289.358368,285.999969 210.862122,285.999969 
	C209.406799,285.999969 207.951492,285.999969 206.293015,285.999969 
	C206.293015,437.852203 206.293015,589.231812 206.293015,740.646240 
	C281.302399,740.646240 356.018097,740.646240 430.759827,740.646240 
	C430.759827,713.358887 430.759827,686.426025 430.759827,658.944702 
	C382.470856,658.944702 334.418304,658.944702 286.362335,658.944702 
	C286.362335,561.679688 286.362335,464.964752 286.362335,368.148956 
	C287.537781,368.087860 288.357147,368.008057 289.176544,368.007935 
	C331.174530,368.001099 373.172699,367.957703 415.169983,368.126526 
	C417.301788,368.135101 419.900452,369.493439 421.482544,371.040558 
	C443.595551,392.665100 465.526611,414.475769 487.662872,436.076233 
	C489.319580,437.692871 492.183746,438.820465 494.515442,438.872040 
	C506.842133,439.144897 519.181335,439.145630 531.507935,438.871307 
	C533.837524,438.819458 536.695740,437.678192 538.353882,436.059875 
	C560.397583,414.546051 582.305603,392.892609 604.134644,371.160645 
	C606.446350,368.859253 608.726990,367.926910 611.972595,367.934875 
	C652.470398,368.034454 692.968567,368.000061 733.466614,368.000061 
	C735.224243,368.000061 736.981934,368.000061 738.586060,368.000061 
	C738.586060,465.419098 738.586060,562.132324 738.586060,659.219727 
	C690.240723,659.219727 642.308411,659.219727 594.360901,659.219727 
	C594.360901,686.648132 594.360901,713.699097 594.360901,740.755127 
	C669.319885,740.755127 743.917664,740.755127 818.698303,740.755127 
	C818.698303,589.130554 818.698303,437.750916 818.698303,285.999969 
	C781.765259,285.999969 745.132629,285.999969 707.500000,285.999969 
z"/>
<path fill="#FFFFFF" fill-opacity="0" opacity="1.000000" stroke="none" 
	d="
M171.531342,1.000000 
	C167.930161,1.665860 163.874084,2.434953 159.788071,2.979375 
	C143.691223,5.124119 127.914543,8.682993 113.395721,16.066736 
	C100.633781,22.556992 87.512581,28.862076 76.097939,37.334393 
	C64.574127,45.887733 54.699310,56.755577 44.565071,67.064590 
	C32.121288,79.722977 23.787582,95.206512 16.464064,111.166039 
	C9.779362,125.733459 5.026105,140.962677 2.998155,156.945740 
	C2.586931,160.186768 2.189019,163.429504 1.392484,166.835724 
	C1.000000,111.738571 1.000000,56.477139 1.000000,1.000000 
	C57.687378,1.000000 114.375031,1.000000 171.531342,1.000000 
z"/>
<path fill="#FFFFFF" fill-opacity="0" opacity="1.000000" stroke="none" 
	d="
M1025.000000,166.531342 
	C1024.001099,161.683304 1022.979980,156.370667 1022.007080,151.049210 
	C1017.071716,124.056068 1006.415466,99.434761 989.885864,77.653557 
	C981.755005,66.939438 972.679260,56.712044 962.783386,47.622856 
	C948.679016,34.668175 932.481323,24.643696 914.814087,16.758816 
	C900.363464,10.309544 885.325195,6.434825 870.047791,3.147741 
	C864.951233,2.051162 859.584656,2.209392 854.170776,1.396999 
	C910.925903,1.000000 967.851807,1.000000 1025.000000,1.000000 
	C1025.000000,56.020695 1025.000000,111.041687 1025.000000,166.531342 
z"/>
<path fill="#FFFFFF" fill-opacity="0" opacity="1.000000" stroke="none" 
	d="
M1.000003,860.468628 
	C1.998910,865.316711 3.019984,870.629395 3.992996,875.950806 
	C8.928554,902.943848 19.584642,927.565186 36.114155,949.346436 
	C44.244965,960.060547 53.320717,970.287964 63.216549,979.377197 
	C77.320900,992.331848 93.518608,1002.356262 111.185814,1010.241211 
	C125.636406,1016.690552 140.674744,1020.565063 155.952118,1023.852234 
	C161.048691,1024.948853 166.415283,1024.790527 171.829224,1025.603027 
	C115.074081,1026.000000 58.148155,1026.000000 1.000000,1026.000000 
	C1.000000,970.979309 1.000000,915.958313 1.000003,860.468628 
z"/>
<path fill="#FFFFFF" fill-opacity="0" opacity="1.000000" stroke="none" 
	d="
M854.468628,1026.000000 
	C858.069824,1025.334106 862.125977,1024.564941 866.211975,1024.020508 
	C882.308838,1021.875977 898.085510,1018.317078 912.604309,1010.933289 
	C925.366211,1004.442993 938.487427,998.137939 949.902039,989.665649 
	C961.425842,981.112366 971.300598,970.244507 981.434875,959.935547 
	C993.878662,947.277161 1002.212463,931.793579 1009.536011,915.834106 
	C1016.220642,901.266602 1020.973999,886.037415 1023.001831,870.054260 
	C1023.413086,866.813232 1023.810852,863.570496 1024.607422,860.164307 
	C1025.000000,915.261414 1025.000000,970.522888 1025.000000,1026.000000 
	C968.312622,1026.000000 911.624939,1026.000000 854.468628,1026.000000 
z"/>
<path fill="#E4C542" opacity="1.000000" stroke="none" 
	d="
M708.000000,285.999969 
	C745.132629,285.999969 781.765259,285.999969 818.698303,285.999969 
	C818.698303,437.750916 818.698303,589.130554 818.698303,740.755127 
	C743.917664,740.755127 669.319885,740.755127 594.360901,740.755127 
	C594.360901,713.699097 594.360901,686.648132 594.360901,659.219727 
	C642.308411,659.219727 690.240723,659.219727 738.586060,659.219727 
	C738.586060,562.132324 738.586060,465.419098 738.586060,368.000061 
	C736.981934,368.000061 735.224243,368.000061 733.466614,368.000061 
	C692.968567,368.000061 652.470398,368.034454 611.972595,367.934875 
	C608.726990,367.926910 606.446350,368.859253 604.134644,371.160645 
	C582.305603,392.892609 560.397583,414.546051 538.353882,436.059875 
	C536.695740,437.678192 533.837524,438.819458 531.507935,438.871307 
	C519.181335,439.145630 506.842133,439.144897 494.515442,438.872040 
	C492.183746,438.820465 489.319580,437.692871 487.662872,436.076233 
	C465.526611,414.475769 443.595551,392.665100 421.482544,371.040558 
	C419.900452,369.493439 417.301788,368.135101 415.169983,368.126526 
	C373.172699,367.957703 331.174530,368.001099 289.176544,368.007935 
	C288.357147,368.008057 287.537781,368.087860 286.362335,368.148956 
	C286.362335,464.964752 286.362335,561.679688 286.362335,658.944702 
	C334.418304,658.944702 382.470856,658.944702 430.759827,658.944702 
	C430.759827,686.426025 430.759827,713.358887 430.759827,740.646240 
	C356.018097,740.646240 281.302399,740.646240 206.293015,740.646240 
	C206.293015,589.231812 206.293015,437.852203 206.293015,285.999969 
	C207.951492,285.999969 209.406799,285.999969 210.862122,285.999969 
	C289.358368,285.999969 367.854645,285.976196 446.350647,286.116943 
	C448.660339,286.121063 451.533386,287.273376 453.188263,288.876648 
	C471.851959,306.958496 490.327148,325.234894 508.858246,343.453735 
	C510.139648,344.713562 511.463165,345.930511 512.957520,347.348022 
	C514.243591,346.171082 515.361694,345.224854 516.393311,344.192200 
	C533.231750,327.337372 550.093506,310.505402 566.868530,293.587616 
	C571.913391,288.499786 577.137573,285.659882 585.007080,285.759552 
	C625.832520,286.276306 666.668030,285.999939 708.000000,285.999969 
z"/>
</svg>